<svg width="32" height="32" viewBox="0 0 32 32" fill="none" xmlns="http://www.w3.org/2000/svg">
<circle cx="16" cy="16" r="16" fill="#161616" fill-opacity="0.22"/>
<g opacity="0.74">
<path d="M16.0834 21.4583L16 21.5417L15.9084 21.4583C11.95 17.8667 9.33335 15.4917 9.33335 13.0833C9.33335 11.4167 10.5834 10.1667 12.25 10.1667C13.5334 10.1667 14.7834 11 15.225 12.1333H16.775C17.2167 11 18.4667 10.1667 19.75 10.1667C21.4167 10.1667 22.6667 11.4167 22.6667 13.0833C22.6667 15.4917 20.05 17.8667 16.0834 21.4583ZM19.75 8.5C18.3 8.5 16.9084 9.175 16 10.2333C15.0917 9.175 13.7 8.5 12.25 8.5C9.68335 8.5 7.66669 10.5083 7.66669 13.0833C7.66669 16.225 10.5 18.8 14.7917 22.6917L16 23.7917L17.2084 22.6917C21.5 18.8 24.3334 16.225 24.3334 13.0833C24.3334 10.5083 22.3167 8.5 19.75 8.5Z" fill="white"/>
</g>
</svg>
