<svg width="64" height="64" viewBox="0 0 64 64" fill="none" xmlns="http://www.w3.org/2000/svg">
<circle cx="32" cy="32" r="32" fill="#10895E"/>
<path d="M26.8 33.7866L30.5733 30.0133L21.2133 20.6666C20.2145 21.6684 19.6535 23.0253 19.6535 24.4399C19.6535 25.8546 20.2145 27.2115 21.2133 28.2133L26.8 33.7866ZM35.84 31.3733C37.88 32.3199 40.7467 31.6533 42.8667 29.5333C45.4133 26.9866 45.9067 23.3333 43.9467 21.3733C42 19.4266 38.3467 19.9066 35.7867 22.4533C33.6667 24.5733 33 27.4399 33.9467 29.4799L20.9333 42.4933L22.8133 44.3733L32 35.2133L41.1733 44.3866L43.0533 42.5066L33.88 33.3333L35.84 31.3733Z" fill="white"/>
</svg>
