<svg width="14" height="10" viewBox="0 0 14 10" fill="none" xmlns="http://www.w3.org/2000/svg">
<path d="M5.486 9.72989C5.35474 9.73016 5.22471 9.7045 5.10338 9.6544C4.98206 9.60429 4.87182 9.53071 4.779 9.43789L0.537003 5.19489C0.44143 5.10271 0.365172 4.99242 0.312678 4.87046C0.260185 4.74849 0.232507 4.61729 0.231261 4.48451C0.230014 4.35174 0.255223 4.22004 0.305417 4.09711C0.355611 3.97418 0.429784 3.86248 0.52361 3.76852C0.617435 3.67456 0.729033 3.60023 0.851893 3.54986C0.974752 3.49949 1.10641 3.4741 1.23919 3.47516C1.37197 3.47622 1.50321 3.50371 1.62525 3.55603C1.74729 3.60835 1.85769 3.68445 1.95 3.77989L5.485 7.31489L11.85 0.951894C12.0375 0.764254 12.2919 0.658785 12.5571 0.658691C12.8224 0.658598 13.0769 0.763886 13.2645 0.951394C13.4521 1.1389 13.5576 1.39327 13.5577 1.65854C13.5578 1.92381 13.4525 2.17825 13.265 2.36589L6.193 9.43789C6.10018 9.53071 5.98995 9.60429 5.86862 9.6544C5.7473 9.7045 5.61727 9.73016 5.486 9.72989Z" fill="#9ACA3C"/>
</svg>
