<svg width="20" height="20" viewBox="0 0 20 20" fill="none" xmlns="http://www.w3.org/2000/svg">
<path d="M18.9469 6.30496C18.9369 5.54758 18.7951 4.79773 18.5279 4.08896C18.2963 3.49111 17.9425 2.94816 17.4891 2.49479C17.0358 2.04142 16.4928 1.68761 15.8949 1.45596C15.1953 1.19331 14.4561 1.0513 13.7089 1.03596C12.7469 0.992957 12.4419 0.980957 9.99995 0.980957C7.55795 0.980957 7.24495 0.980957 6.28995 1.03596C5.54311 1.05141 4.8043 1.19343 4.10495 1.45596C3.50701 1.68745 2.96397 2.0412 2.51058 2.49459C2.05719 2.94798 1.70344 3.49102 1.47195 4.08896C1.20878 4.78809 1.06707 5.52707 1.05295 6.27396C1.00995 7.23696 0.996948 7.54196 0.996948 9.98396C0.996948 12.426 0.996948 12.738 1.05295 13.694C1.06795 14.442 1.20895 15.18 1.47195 15.881C1.70383 16.4787 2.05784 17.0215 2.51138 17.4747C2.96492 17.9279 3.50801 18.2815 4.10595 18.513C4.80338 18.7862 5.54232 18.9383 6.29095 18.963C7.25395 19.006 7.55895 19.019 10.0009 19.019C12.4429 19.019 12.7559 19.019 13.7109 18.963C14.4581 18.9482 15.1973 18.8066 15.8969 18.544C16.4946 18.312 17.0375 17.9581 17.4908 17.5048C17.9441 17.0515 18.298 16.5086 18.5299 15.911C18.7929 15.211 18.9339 14.473 18.9489 13.724C18.9919 12.762 19.0049 12.457 19.0049 10.014C19.0029 7.57196 19.0029 7.26196 18.9469 6.30496ZM9.99395 14.602C7.43995 14.602 5.37095 12.533 5.37095 9.97896C5.37095 7.42496 7.43995 5.35596 9.99395 5.35596C11.22 5.35596 12.3959 5.84302 13.2629 6.71C14.1299 7.57698 14.6169 8.75286 14.6169 9.97896C14.6169 11.2051 14.1299 12.3809 13.2629 13.2479C12.3959 14.1149 11.22 14.602 9.99395 14.602ZM14.8009 6.26296C14.2039 6.26296 13.7229 5.78096 13.7229 5.18496C13.7229 5.04346 13.7508 4.90334 13.805 4.77262C13.8591 4.64189 13.9385 4.5231 14.0385 4.42305C14.1386 4.32299 14.2574 4.24363 14.3881 4.18948C14.5188 4.13533 14.6589 4.10746 14.8004 4.10746C14.9419 4.10746 15.0821 4.13533 15.2128 4.18948C15.3435 4.24363 15.4623 4.32299 15.5624 4.42305C15.6624 4.5231 15.7418 4.64189 15.7959 4.77262C15.8501 4.90334 15.8779 5.04346 15.8779 5.18496C15.8779 5.78096 15.3959 6.26296 14.8009 6.26296Z" fill="white" fill-opacity="0.48"/>
</svg>
