<svg width="18" height="20" viewBox="0 0 18 20" fill="none" xmlns="http://www.w3.org/2000/svg">
<path d="M2 20H16C16.5304 20 17.0391 19.7893 17.4142 19.4142C17.7893 19.0391 18 18.5304 18 18V7C18 6.73478 17.8946 6.48043 17.7071 6.29289C17.5196 6.10536 17.2652 6 17 6H14V5.223C14 2.614 12.097 0.278001 9.5 0.0250005C8.80487 -0.0440873 8.10298 0.0331014 7.43949 0.251601C6.77599 0.4701 6.16557 0.82507 5.64752 1.29368C5.12946 1.76228 4.71524 2.33414 4.43149 2.97247C4.14774 3.6108 4.00076 4.30145 4 5V6H1C0.734784 6 0.48043 6.10536 0.292893 6.29289C0.105357 6.48043 0 6.73478 0 7V18C0 18.5304 0.210714 19.0391 0.585786 19.4142C0.960859 19.7893 1.46957 20 2 20ZM14 8V10H12V8H14ZM6 5C6 3.346 7.346 2 9 2C10.654 2 12 3.346 12 5V6H6V5ZM4 8H6V10H4V8Z" fill="#161616" fill-opacity="0.48"/>
</svg>
