<svg width="20" height="20" viewBox="0 0 20 20" fill="none" xmlns="http://www.w3.org/2000/svg">
<path d="M7.05417 9.41083C7.99833 8.46666 9.645 8.46666 10.5892 9.41083L11.1783 9.99999L12.3567 8.82166L11.7675 8.23249C10.9817 7.44582 9.935 7.01166 8.82167 7.01166C7.70833 7.01166 6.66167 7.44582 5.87583 8.23249L4.1075 9.99999C3.32774 10.7823 2.88989 11.8417 2.88989 12.9462C2.88989 14.0508 3.32774 15.1102 4.1075 15.8925C4.49406 16.2796 4.95331 16.5865 5.45885 16.7956C5.96439 17.0047 6.50626 17.1118 7.05333 17.1108C7.60055 17.112 8.14259 17.0049 8.64829 16.7958C9.15399 16.5867 9.61337 16.2797 10 15.8925L10.5892 15.3033L9.41083 14.125L8.82167 14.7142C8.35206 15.1817 7.71639 15.4441 7.05375 15.4441C6.39111 15.4441 5.75544 15.1817 5.28583 14.7142C4.81792 14.2448 4.55517 13.609 4.55517 12.9462C4.55517 12.2835 4.81792 11.6477 5.28583 11.1783L7.05417 9.41083Z" fill="#161616" fill-opacity="0.74"/>
<path d="M9.99998 4.10751L9.41081 4.69668L10.5891 5.87501L11.1783 5.28585C11.6479 4.81834 12.2836 4.55587 12.9462 4.55587C13.6089 4.55587 14.2445 4.81834 14.7141 5.28585C15.1821 5.75524 15.4448 6.39099 15.4448 7.05377C15.4448 7.71654 15.1821 8.35229 14.7141 8.82168L12.9458 10.5892C12.0016 11.5333 10.355 11.5333 9.41081 10.5892L8.82164 10L7.64331 11.1783L8.23248 11.7675C9.01831 12.5542 10.065 12.9883 11.1783 12.9883C12.2916 12.9883 13.3383 12.5542 14.1241 11.7675L15.8925 10C16.6722 9.21775 17.1101 8.15828 17.1101 7.05377C17.1101 5.94925 16.6722 4.88978 15.8925 4.10751C15.1104 3.32735 14.0509 2.88922 12.9462 2.88922C11.8416 2.88922 10.782 3.32735 9.99998 4.10751Z" fill="#161616" fill-opacity="0.74"/>
</svg>
