<svg width="20" height="20" viewBox="0 0 20 20" fill="none" xmlns="http://www.w3.org/2000/svg">
<path d="M16.3609 6.66415C16.3717 6.80999 16.3717 6.95499 16.3717 7.09999C16.3717 11.5375 12.9942 16.6508 6.82175 16.6508C4.92008 16.6508 3.15341 16.1 1.66675 15.1433C1.93675 15.1742 2.19675 15.185 2.47758 15.185C3.98841 15.1886 5.45645 14.6834 6.64508 13.7508C5.9446 13.7381 5.26556 13.507 4.70278 13.0898C4.14 12.6725 3.72157 12.0899 3.50591 11.4233C3.71341 11.4542 3.92175 11.475 4.14008 11.475C4.44091 11.475 4.74341 11.4333 5.02425 11.3608C4.26405 11.2073 3.58048 10.7953 3.08976 10.1947C2.59905 9.59417 2.33149 8.84219 2.33258 8.06665V8.02498C2.78008 8.27415 3.29925 8.42998 3.84925 8.45082C3.38849 8.14464 3.01068 7.72917 2.74953 7.24148C2.48838 6.75378 2.35201 6.20903 2.35258 5.65582C2.35258 5.03249 2.51841 4.46082 2.80925 3.96249C3.6527 5 4.70467 5.84879 5.89703 6.45387C7.08939 7.05895 8.39555 7.40683 9.73091 7.47499C9.67925 7.22499 9.64758 6.96582 9.64758 6.70582C9.64736 6.26495 9.73404 5.82837 9.90265 5.42102C10.0713 5.01367 10.3185 4.64355 10.6302 4.33181C10.942 4.02007 11.3121 3.77283 11.7194 3.60422C12.1268 3.43561 12.5634 3.34893 13.0042 3.34915C13.9709 3.34915 14.8434 3.75415 15.4567 4.40915C16.2082 4.26383 16.9289 3.9895 17.5867 3.59832C17.3363 4.374 16.8115 5.03174 16.1109 5.44832C16.7774 5.3723 17.4288 5.19703 18.0434 4.92832C17.5844 5.59757 17.0155 6.18444 16.3609 6.66415Z" fill="#1DA1F2"/>
</svg>
