<svg width="14" height="18" viewBox="0 0 14 18" fill="none" xmlns="http://www.w3.org/2000/svg">
<path d="M13.0012 0.998574C13.2901 1.15861 13.3991 1.43606 13.2901 1.71877C13.1988 1.95534 12.9227 2.11666 12.663 2.05191C12.6091 2.03846 12.5339 2.00802 12.4407 1.97027C12.1165 1.83894 11.5738 1.61918 10.9472 1.71877C10.3228 1.81799 9.88803 2.41761 9.7436 2.67901C10.0913 2.83905 10.9472 3.35572 11.4639 4.39553C11.7922 5.05635 11.8871 5.80532 11.893 6.42286L11.1426 6.78814C10.9352 6.88912 10.685 6.80267 10.5846 6.59537L9.95025 5.28483C9.83782 5.05256 9.54259 4.97748 9.33236 5.12769L8.2909 5.8718C8.05361 6.04134 7.71958 5.92128 7.64529 5.63975L7.34872 4.51582C7.28141 4.26077 6.99597 4.13196 6.75943 4.24991L4.98541 5.13452C4.79949 5.22723 4.57349 5.1691 4.45573 4.99827L4.1282 4.52318C4.49815 3.92098 5.08523 3.23762 5.9243 2.82305C6.8975 2.3422 8.28328 2.27891 8.89308 2.37493C9.07495 2.03885 9.63126 1.27065 10.4015 0.886553C11.3644 0.40643 12.7124 0.83854 13.0012 0.998574Z" fill="#CE1313"/>
<path d="M3.44984 6.27652C3.50507 5.99963 3.85673 5.96263 3.99748 6.20758C4.0849 6.35972 4.27619 6.41735 4.43345 6.33893L6.2146 5.45076C6.45114 5.33281 6.73659 5.46162 6.80389 5.71668L7.14726 7.01794C7.22155 7.29947 7.55557 7.41953 7.79287 7.24998L9.01252 6.37856C9.22275 6.22835 9.51798 6.30344 9.63041 6.5357L10.2995 7.91789C10.4064 8.13879 10.6809 8.21973 10.8911 8.09233L11.0513 7.99524C11.3536 7.81201 11.7181 8.06257 11.6112 8.39887C11.1285 9.91742 10.0467 11.172 8.778 12.5737C7.0247 14.5108 3.09255 16.8733 2.42106 17.1445C2.03118 17.3019 1.41262 17.4884 1.00228 17.1169C0.627381 16.7776 0.60311 16.3463 0.758363 15.8471C0.832472 15.6088 1.01215 15.2968 1.24332 14.8955C1.69659 14.1085 2.3478 12.9779 2.78908 11.3852C3.19146 9.93296 3.22357 9.09226 3.25575 8.24994C3.27686 7.6974 3.29799 7.14416 3.42368 6.41713C3.43192 6.36949 3.44064 6.32262 3.44984 6.27652Z" fill="#CE1313"/>
</svg>
