<svg width="18" height="18" viewBox="0 0 18 18" fill="none" xmlns="http://www.w3.org/2000/svg">
<path d="M17.2825 7.35597H8.95553V10.807H13.7475C13.3015 13 11.4345 14.26 8.95553 14.26C8.26186 14.2612 7.57479 14.1254 6.93371 13.8605C6.29263 13.5955 5.71016 13.2066 5.21971 12.7161C4.72926 12.2255 4.34048 11.643 4.07566 11.0019C3.81085 10.3607 3.67521 9.67364 3.67653 8.97997C3.67534 8.28639 3.81108 7.5994 4.07595 6.95839C4.34083 6.31737 4.72963 5.73495 5.22006 5.24451C5.7105 4.75408 6.29292 4.36527 6.93394 4.1004C7.57495 3.83552 8.26194 3.69979 8.95553 3.70097C10.2145 3.70097 11.3525 4.14797 12.2455 4.87897L14.8455 2.27997C13.2615 0.898974 11.2305 0.0469741 8.95553 0.0469741C7.78133 0.0435419 6.61805 0.272284 5.53258 0.720044C4.4471 1.1678 3.46086 1.82575 2.63058 2.65603C1.8003 3.48631 1.14235 4.47255 0.694595 5.55802C0.246835 6.6435 0.0180933 7.80678 0.0215254 8.98097C0.0179605 10.1552 0.246612 11.3185 0.694325 12.4041C1.14204 13.4896 1.79997 14.4759 2.63028 15.3062C3.46059 16.1365 4.44689 16.7945 5.53242 17.2422C6.61795 17.6899 7.7813 17.9185 8.95553 17.915C13.4225 17.915 17.4845 14.666 17.4845 8.98097C17.4845 8.45297 17.4035 7.88397 17.2825 7.35597Z" fill="white"/>
</svg>
