<svg width="20" height="17" viewBox="0 0 20 17" fill="none" xmlns="http://www.w3.org/2000/svg">
<path d="M6.283 16.263C13.83 16.263 17.959 10.004 17.959 4.586C17.959 4.41 17.959 4.234 17.951 4.058C18.7551 3.47532 19.4489 2.75406 20 1.928C19.2496 2.25954 18.4544 2.47824 17.64 2.577C18.498 2.06329 19.1405 1.25562 19.448 0.304C18.6415 0.782459 17.7586 1.11837 16.838 1.297C16.4548 0.887578 15.9916 0.561206 15.4771 0.338105C14.9626 0.115003 14.4078 -7.47145e-05 13.847 3.63934e-08C12.7583 0.000794637 11.7143 0.433645 10.9445 1.2035C10.1746 1.97335 9.74179 3.01726 9.741 4.106C9.741 4.426 9.781 4.738 9.845 5.042C8.21289 4.96004 6.61627 4.53575 5.15879 3.79667C3.7013 3.05759 2.41555 2.02025 1.385 0.752C0.861283 1.65655 0.701409 2.72651 0.937835 3.74464C1.17426 4.76278 1.78927 5.65279 2.658 6.234C2.00708 6.21146 1.37059 6.03607 0.8 5.722V5.778C0.80088 6.7253 1.12873 7.64326 1.72816 8.37679C2.32759 9.11032 3.16186 9.61445 4.09 9.804C3.73825 9.90102 3.37488 9.94947 3.01 9.948C2.745 9.948 2.489 9.924 2.24 9.876C2.50164 10.6918 3.01201 11.4053 3.69958 11.9164C4.38714 12.4275 5.21742 12.7106 6.074 12.726C4.62055 13.8686 2.82477 14.4885 0.976 14.486C0.648 14.486 0.32 14.47 0 14.43C1.87671 15.6276 4.05673 16.2636 6.283 16.263Z" fill="white" fill-opacity="0.48"/>
</svg>
